<svg width="175" height="90" viewBox="0 0 175 90" fill="none" xmlns="http://www.w3.org/2000/svg">
<rect x="0.5" y="0.5" width="174" height="89" rx="3.5" stroke="#AFB1B8"/>
<path d="M84.9769 21.9345H85.1135C85.3665 21.9345 85.6397 21.9599 85.9104 21.9828C87.103 22.067 88.2873 22.2455 89.452 22.5168V19.6535C88.2527 19.3526 87.0296 19.1578 85.7965 19.0712C85.3285 19.0356 84.8302 19.0127 84.3192 19H83.8917C81.4168 19.0093 78.9526 19.3271 76.5554 19.946C73.8252 20.6269 71.2046 21.6928 68.7715 23.1119V51.5086C71.1142 50.2357 73.607 49.2643 76.1912 48.6173C78.2315 48.0967 80.3174 47.7765 82.4193 47.6612H82.5028C82.8545 47.6434 83.2061 47.6332 83.5678 47.6306V44.7216C80.8366 44.7567 78.1192 45.1178 75.4727 45.7972C74.4937 46.0515 73.5476 46.3261 72.6597 46.6313L71.6478 46.9746V24.8334L72.0804 24.6249C75.3816 23.0595 78.9521 22.1486 82.5964 21.9421C82.6267 21.9399 82.6572 21.9399 82.6875 21.9421C83.0897 21.9218 83.4945 21.9116 83.8917 21.9116H84.3268H84.347C84.557 21.9167 84.7669 21.9218 84.9769 21.9345Z" fill="#AFB1B8"/>
<path d="M92.111 24.9326C91.4457 24.9326 90.788 24.9097 90.153 24.8614C89.3941 24.8054 88.6149 24.7139 87.8763 24.5893C87.426 24.513 86.9833 24.4215 86.5532 24.3223V52.3935C88.3739 52.8443 90.2435 53.0647 92.1186 53.0496C94.5933 53.0395 97.0573 52.7227 99.4548 52.1061C102.186 51.4243 104.807 50.3585 107.241 48.9402V21.0496C104.899 22.3218 102.407 23.294 99.8242 23.9434C97.3034 24.5908 94.7128 24.9231 92.111 24.9326ZM103.335 25.4183L104.347 25.0775V47.2263L103.915 47.4348C102.255 48.2243 100.523 48.8469 98.7414 49.2937C96.5784 49.8533 94.3547 50.1412 92.1211 50.1506C91.4533 50.1506 90.7905 50.1227 90.148 50.0667L89.4548 50.0057V47.3178V27.2288L90.2618 27.2822C90.8487 27.3204 91.4558 27.3382 92.1161 27.3382C94.9517 27.3281 97.7751 26.966 100.522 26.26C101.466 26.0108 102.404 25.7311 103.335 25.4183Z" fill="#AFB1B8"/>
<path d="M70.7373 61.2123C70.5918 61.0614 70.4164 60.9429 70.2225 60.8645C70.0286 60.7861 69.8204 60.7495 69.6115 60.7571C69.3889 60.7541 69.1679 60.7956 68.9614 60.8791C68.772 60.9546 68.5999 61.0679 68.4554 61.2123C68.3126 61.3571 68.2014 61.5303 68.1291 61.7208C68.0498 61.9205 68.0103 62.1339 68.0127 62.3489V66.143C68.0037 66.4103 68.0547 66.6763 68.162 66.9211C68.2516 67.1155 68.3808 67.2888 68.5415 67.4297C68.6931 67.5573 68.8711 67.6494 69.0626 67.6992C69.2471 67.7511 69.4377 67.7776 69.6292 67.7781C69.8405 67.7802 70.0497 67.735 70.2414 67.6458C70.4311 67.5629 70.6029 67.4437 70.7474 67.2949C70.8883 67.1475 71.0006 66.975 71.0788 66.7863C71.1599 66.595 71.2012 66.3891 71.2002 66.1811V65.7564H70.2085V66.0947C70.2115 66.2101 70.1917 66.3251 70.1504 66.4329C70.1181 66.5136 70.0689 66.5865 70.0062 66.6465C69.9447 66.6961 69.8743 66.7332 69.7987 66.7558C69.7318 66.7781 69.6618 66.7901 69.5913 66.7914C69.5028 66.8017 69.4131 66.7883 69.3313 66.7526C69.2496 66.7169 69.1787 66.6601 69.1258 66.588C69.0323 66.4355 68.9865 66.2583 68.9943 66.0794V62.5422C68.9881 62.3461 69.0298 62.1514 69.1157 61.9751C69.1672 61.8951 69.24 61.8311 69.3259 61.7907C69.4118 61.7502 69.5072 61.7348 69.6014 61.7463C69.6869 61.7432 69.7718 61.7611 69.8489 61.7983C69.926 61.8355 69.993 61.8909 70.0441 61.9599C70.1551 62.1056 70.2131 62.285 70.2085 62.4685V62.7965H71.1901V62.41C71.1921 62.183 71.1509 61.9577 71.0686 61.7463C70.9954 61.5475 70.8826 61.3658 70.7373 61.2123Z" fill="#AFB1B8"/>
<path d="M76.6287 61.1692C76.3125 60.9022 75.9134 60.7547 75.5004 60.7522C75.2984 60.7531 75.0981 60.7892 74.9085 60.859C74.7159 60.928 74.5382 61.0333 74.3848 61.1692C74.2205 61.3169 74.0894 61.4981 74.0003 61.7007C73.9004 61.9325 73.8512 62.1831 73.8561 62.4356V66.0745C73.8493 66.3305 73.8985 66.5849 74.0003 66.8196C74.09 67.0153 74.2213 67.1889 74.3848 67.3282C74.5364 67.4689 74.7144 67.5779 74.9085 67.6486C75.0981 67.7184 75.2984 67.7545 75.5004 67.7554C75.7024 67.755 75.9028 67.7188 76.0924 67.6486C76.2897 67.5769 76.4717 67.4681 76.6287 67.3282C76.7869 67.1862 76.9143 67.0131 77.0031 66.8196C77.1049 66.5849 77.1541 66.3305 77.1473 66.0745V62.4356C77.1521 62.1831 77.103 61.9325 77.0031 61.7007C76.9148 61.5002 76.7875 61.3195 76.6287 61.1692ZM76.1657 66.0745C76.1741 66.1715 76.1607 66.2691 76.1266 66.3602C76.0924 66.4513 76.0384 66.5336 75.9684 66.6009C75.8374 66.7107 75.6723 66.7709 75.5017 66.7709C75.3311 66.7709 75.1659 66.7107 75.0349 66.6009C74.965 66.5336 74.911 66.4513 74.8768 66.3602C74.8427 66.2691 74.8293 66.1715 74.8376 66.0745V62.4356C74.8293 62.3386 74.8427 62.241 74.8768 62.1499C74.911 62.0588 74.965 61.9765 75.0349 61.9092C75.1659 61.7994 75.3311 61.7392 75.5017 61.7392C75.6723 61.7392 75.8374 61.7994 75.9684 61.9092C76.0384 61.9765 76.0924 62.0588 76.1266 62.1499C76.1607 62.241 76.1741 62.3386 76.1657 62.4356V66.0745Z" fill="#AFB1B8"/>
<path d="M84.3675 67.6993V60.8105H83.4138L82.1616 64.4571H82.1439L80.8816 60.8105H79.938V67.6993H80.9221V63.5086H80.9398L81.9036 66.4711H82.3944L83.3658 63.5086H83.3835V67.6993H84.3675Z" fill="#AFB1B8"/>
<path d="M89.9582 61.2938C89.8067 61.1238 89.6154 60.9944 89.4016 60.9174C89.1713 60.8425 88.9303 60.8064 88.6883 60.8106H87.2261V67.6994H88.2076V65.009H88.7136C89.0198 65.0229 89.3245 64.9582 89.599 64.8208C89.8221 64.6969 90.0082 64.5151 90.1378 64.2944C90.2513 64.1112 90.3278 63.9073 90.3629 63.6943C90.4016 63.4351 90.4193 63.1732 90.4161 62.9111C90.4256 62.5803 90.3933 62.2496 90.3199 61.927C90.2545 61.6886 90.13 61.4708 89.9582 61.2938ZM89.4522 63.3942C89.448 63.519 89.4169 63.6413 89.3612 63.7528C89.3051 63.8587 89.2163 63.9435 89.1082 63.9944C88.9628 64.0594 88.8042 64.089 88.6453 64.0808H88.1975V61.7388H88.7034C88.8558 61.7313 89.0077 61.761 89.1461 61.8253C89.2476 61.8835 89.3282 61.9725 89.3763 62.0795C89.43 62.2006 89.4592 62.3311 89.4624 62.4635C89.4624 62.6085 89.4624 62.7611 89.4624 62.9213C89.4624 63.0815 89.4725 63.2467 89.4624 63.3942H89.4522Z" fill="#AFB1B8"/>
<path d="M94.6074 60.8105H93.803L92.2852 67.6993H93.2667L93.5551 66.2193H94.8933L95.1817 67.6993H96.1632L94.6074 60.8105ZM93.7018 65.281L94.185 62.7838H94.2027L94.6833 65.281H93.7018Z" fill="#AFB1B8"/>
<path d="M100.95 64.9606H100.932L99.4494 60.8105H98.5059V67.6993H99.4874V63.5569H99.5076L101.008 67.6993H101.931V60.8105H100.95V64.9606Z" fill="#AFB1B8"/>
<path d="M106.948 60.8105L106.158 63.5493H106.138L105.349 60.8105H104.309L105.657 64.7877V67.6993H106.639V64.7877L107.987 60.8105H106.948Z" fill="#AFB1B8"/>
<path d="M68 69.6447H68.4731V70.972H68.7943V69.6447H69.2649V69.3726H68V69.6447Z" fill="#AFB1B8"/>
<path d="M71.9767 69.3726L71.3569 70.972H71.6984L71.83 70.6084H72.4675L72.6041 70.972H72.9532L72.3182 69.3726H71.9767ZM71.9261 70.3389L72.1437 69.7464L72.3612 70.3389H71.9261Z" fill="#AFB1B8"/>
<path d="M75.9079 70.3821H76.2773V70.5881C76.1694 70.6746 76.0358 70.722 75.8978 70.7229C75.8333 70.7265 75.7689 70.7145 75.7099 70.688C75.6509 70.6614 75.5991 70.6211 75.5588 70.5703C75.474 70.4485 75.4322 70.3017 75.4399 70.1533C75.4399 69.7973 75.5942 69.6193 75.9003 69.6193C75.9809 69.6112 76.0617 69.6325 76.128 69.6791C76.1944 69.7257 76.2419 69.7947 76.2621 69.8735L76.5783 69.8125C76.51 69.4997 76.2849 69.3421 75.9003 69.3421C75.6947 69.3366 75.4947 69.4103 75.3413 69.5481C75.2607 69.6276 75.1983 69.7239 75.1586 69.8302C75.1188 69.9365 75.1026 70.0502 75.1111 70.1634C75.1017 70.3823 75.1749 70.5966 75.316 70.7636C75.3943 70.8444 75.4892 70.9071 75.594 70.9475C75.6988 70.9879 75.8111 71.0049 75.9231 70.9975C76.1734 71.0045 76.4165 70.9133 76.6011 70.7432V70.1126H75.9079V70.3821Z" fill="#AFB1B8"/>
<path d="M79.9224 69.3726H79.5986V70.972H80.7193V70.7H79.9224V69.3726Z" fill="#AFB1B8"/>
<path d="M83.3175 69.3726H82.9937V70.972H83.3175V69.3726Z" fill="#AFB1B8"/>
<path d="M86.6364 70.4406L85.9812 69.3726H85.6675V70.972H85.9685V69.9269L86.6111 70.972H86.9323V69.3726H86.6364V70.4406Z" fill="#AFB1B8"/>
<path d="M89.6368 70.2677H90.4337V69.9956H89.6368V69.6447H90.4944V69.3726H89.313V70.972H90.5273V70.7H89.6368V70.2677Z" fill="#AFB1B8"/>
<path d="M96.9121 70.0032H96.2822V69.3726H95.9609V70.972H96.2822V70.2728H96.9121V70.972H97.2334V69.3726H96.9121V70.0032Z" fill="#AFB1B8"/>
<path d="M99.9302 70.2677H100.73V69.9956H99.9302V69.6447H100.79V69.3726H99.6089V70.972H100.821V70.7H99.9302V70.2677Z" fill="#AFB1B8"/>
<path d="M104.023 70.2676C104.302 70.2244 104.443 70.0769 104.443 69.8226C104.452 69.7546 104.441 69.6856 104.414 69.623C104.386 69.5603 104.342 69.5063 104.287 69.4666C104.142 69.3938 103.98 69.3614 103.819 69.3725H103.141V70.972H103.462V70.3032H103.525C103.594 70.299 103.662 70.3112 103.725 70.3388C103.772 70.3678 103.811 70.4079 103.839 70.4558L104.188 70.9644H104.572L104.378 70.6516C104.292 70.4972 104.17 70.3656 104.023 70.2676ZM103.7 70.0464H103.462V69.6446H103.715C103.825 69.6357 103.936 69.6486 104.041 69.6827C104.065 69.7034 104.083 69.7291 104.095 69.7579C104.107 69.7867 104.113 69.8179 104.112 69.8492C104.11 69.8804 104.102 69.911 104.087 69.9385C104.072 69.966 104.051 69.9899 104.026 70.0082C103.92 70.0406 103.81 70.0535 103.7 70.0464Z" fill="#AFB1B8"/>
<path d="M107.109 70.2677H107.906V69.9956H107.109V69.6447H107.97V69.3726H106.786V70.972H108V70.7H107.109V70.2677Z" fill="#AFB1B8"/>
</svg>
