<svg width="175" height="90" viewBox="0 0 175 90" fill="none" xmlns="http://www.w3.org/2000/svg">
<rect x="0.5" y="0.5" width="174" height="89" rx="3.5" stroke="#AFB1B8"/>
<path d="M69.3457 64.4926C69.3607 64.493 69.3755 64.4961 69.3891 64.5018C69.4028 64.5076 69.4152 64.5157 69.4254 64.5259L69.6312 64.7348C69.4714 64.9039 69.274 65.0392 69.0524 65.1313C68.7929 65.2319 68.5133 65.2805 68.2319 65.2738C67.9675 65.2788 67.7049 65.2336 67.4603 65.1408C67.2396 65.0557 67.0414 64.9277 66.879 64.7657C66.7132 64.5976 66.5855 64.4006 66.5034 64.1863C66.4135 63.9474 66.3692 63.696 66.3723 63.4431C66.3686 63.1886 66.4166 62.9358 66.5137 62.6976C66.6036 62.4819 66.7391 62.2849 66.9124 62.1182C67.0881 61.9547 67.2982 61.8262 67.5297 61.7407C67.7831 61.65 68.0528 61.6049 68.3245 61.6077C68.5769 61.602 68.8279 61.6432 69.0627 61.7288C69.2664 61.8104 69.4535 61.9236 69.6157 62.0636L69.4434 62.2868C69.4315 62.3025 69.4167 62.3162 69.3997 62.3271C69.3793 62.34 69.3548 62.3459 69.3302 62.3438C69.3035 62.3421 69.2778 62.3339 69.2556 62.32L69.163 62.2607L69.0344 62.1847C68.9789 62.1565 68.9213 62.1319 68.8621 62.1111C68.7858 62.0859 68.7076 62.066 68.628 62.0517C68.5271 62.0345 68.4246 62.0266 68.3219 62.028C68.1263 62.0257 67.9322 62.0596 67.7509 62.1277C67.5819 62.1908 67.4294 62.2863 67.3034 62.4079C67.1751 62.5372 67.0763 62.689 67.0127 62.8543C66.9403 63.0433 66.9046 63.2426 66.9073 63.4431C66.9042 63.6467 66.9399 63.8493 67.0127 64.0415C67.0755 64.2053 67.1725 64.3562 67.2982 64.4855C67.416 64.6061 67.5621 64.7003 67.7252 64.7609C67.8931 64.8252 68.0733 64.8575 68.2551 64.8559C68.3601 64.8574 68.465 64.851 68.5689 64.8369C68.7385 64.8178 68.9012 64.7634 69.0447 64.6778C69.1167 64.634 69.1847 64.5848 69.2479 64.5306C69.2744 64.5073 69.3091 64.4938 69.3457 64.4926Z" fill="#AFB1B8"/>
<path d="M75.2871 63.4428C75.2903 63.6947 75.2432 63.945 75.1482 64.1812C75.0644 64.3954 74.9323 64.5908 74.7608 64.7545C74.5892 64.9182 74.382 65.0465 74.1528 65.1309C73.6492 65.3082 73.0925 65.3082 72.589 65.1309C72.3613 65.0452 72.1554 64.9166 71.9845 64.7534C71.8131 64.5867 71.68 64.3896 71.5936 64.1741C71.4083 63.6958 71.4083 63.1731 71.5936 62.6949C71.6813 62.4792 71.8141 62.2815 71.9845 62.1131C72.1568 61.955 72.3626 61.8314 72.589 61.7499C73.0919 61.5694 73.6499 61.5694 74.1528 61.7499C74.3813 61.8355 74.588 61.9641 74.7598 62.1274C74.9292 62.2924 75.0612 62.487 75.1482 62.6996C75.2435 62.9374 75.2906 63.1893 75.2871 63.4428ZM74.747 63.4428C74.751 63.2412 74.718 63.0405 74.6492 62.8492C74.5916 62.6853 74.4979 62.5341 74.374 62.4052C74.2534 62.2832 74.1049 62.1875 73.9393 62.125C73.5734 61.9952 73.1684 61.9952 72.8024 62.125C72.6368 62.1875 72.4884 62.2832 72.3678 62.4052C72.2422 62.5334 72.1475 62.6847 72.09 62.8492C71.9591 63.2357 71.9591 63.6499 72.09 64.0364C72.148 64.2006 72.2427 64.3518 72.3678 64.4804C72.4885 64.6016 72.637 64.6965 72.8024 64.7582C73.169 64.8847 73.5728 64.8847 73.9393 64.7582C74.1048 64.6965 74.2533 64.6016 74.374 64.4804C74.4974 64.3511 74.591 64.2 74.6492 64.0364C74.7183 63.8451 74.7513 63.6443 74.747 63.4428Z" fill="#AFB1B8"/>
<path d="M79.3408 64.0651L79.3948 64.1981C79.4154 64.1506 79.4334 64.1079 79.4539 64.0651C79.4736 64.0205 79.4959 63.9769 79.5208 63.9345L80.8352 61.7289C80.8609 61.6909 80.884 61.6672 80.9098 61.6601C80.9447 61.6502 80.9813 61.6462 81.0178 61.6482H81.4062V65.2356H80.9458V62.5979C80.9458 62.5646 80.9458 62.5266 80.9458 62.4863C80.9433 62.4452 80.9433 62.4039 80.9458 62.3628L79.6237 64.5993C79.6069 64.6328 79.58 64.6611 79.5463 64.6809C79.5125 64.7007 79.4733 64.7111 79.4334 64.7109H79.3588C79.3187 64.7114 79.2794 64.7011 79.2456 64.6813C79.2118 64.6615 79.185 64.633 79.1684 64.5993L77.8078 62.3486C77.8078 62.3913 77.8078 62.4341 77.8078 62.4768C77.8078 62.5195 77.8078 62.5575 77.8078 62.5907V65.2285H77.3628V61.6482H77.7512C77.7877 61.6462 77.8243 61.6502 77.8592 61.6601C77.8911 61.6747 77.9165 61.699 77.9312 61.7289L79.2739 63.9369C79.3003 63.9777 79.3227 64.0206 79.3408 64.0651Z" fill="#AFB1B8"/>
<path d="M84.2869 63.887V65.2307H83.7725V61.6483H84.9196C85.1362 61.6445 85.3521 61.6709 85.5601 61.7267C85.7266 61.7702 85.881 61.8463 86.0128 61.9498C86.127 62.0468 86.2151 62.1671 86.27 62.3012C86.3307 62.4473 86.3604 62.6029 86.3575 62.7594C86.3597 62.9165 86.3274 63.0723 86.2623 63.2175C86.2005 63.355 86.1054 63.4776 85.9845 63.576C85.8525 63.6838 85.6974 63.7647 85.5292 63.8134C85.329 63.8725 85.1195 63.9006 84.9093 63.8965L84.2869 63.887ZM84.2869 63.5024H84.9093C85.0446 63.504 85.1792 63.4856 85.308 63.4478C85.4143 63.4148 85.5123 63.3623 85.5961 63.2935C85.6734 63.2278 85.7332 63.1466 85.771 63.0561C85.8131 62.9604 85.8341 62.8579 85.8327 62.7546C85.8387 62.655 85.8211 62.5554 85.7811 62.4628C85.7412 62.3701 85.6798 62.2866 85.6013 62.2181C85.4047 62.0765 85.1579 62.0079 84.9093 62.0258H84.2869V63.5024Z" fill="#AFB1B8"/>
<path d="M91.2007 65.2355H90.7943C90.7536 65.2369 90.7135 65.2252 90.6812 65.2022C90.652 65.1799 90.6291 65.1514 90.6143 65.1191L90.2645 64.2525H88.5077L88.145 65.1191C88.1317 65.1508 88.1095 65.1787 88.0807 65.1999C88.048 65.2242 88.007 65.2368 87.965 65.2355H87.5586L89.1019 61.6479H89.6369L91.2007 65.2355ZM88.6543 63.9035H90.105L89.4928 62.4433C89.4461 62.3335 89.4074 62.2209 89.3771 62.1062L89.3179 62.2937C89.2999 62.3507 89.2794 62.403 89.2614 62.4457L88.6543 63.9035Z" fill="#AFB1B8"/>
<path d="M93.4233 61.6646C93.4541 61.6802 93.4805 61.7022 93.5005 61.7288L95.7511 64.433C95.7511 64.3903 95.7511 64.3475 95.7511 64.3072C95.7511 64.2668 95.7511 64.2265 95.7511 64.1885V61.648H96.2115V65.2355H95.9543C95.9178 65.2365 95.8816 65.2292 95.8489 65.2141C95.8171 65.197 95.7892 65.1745 95.7666 65.1477L93.5185 62.4458C93.521 62.4869 93.521 62.5281 93.5185 62.5692C93.5185 62.6096 93.5185 62.6452 93.5185 62.6784V65.2355H93.0581V61.648H93.3308C93.3626 61.6472 93.3942 61.6529 93.4233 61.6646Z" fill="#AFB1B8"/>
<path d="M100.003 63.8085V65.2332H99.4883V63.8085L98.0659 61.6478H98.5263C98.566 61.6457 98.6052 61.6566 98.6369 61.6787C98.6649 61.7017 98.6884 61.729 98.7064 61.7594L99.5964 63.1532C99.6324 63.2126 99.6632 63.2672 99.689 63.3194C99.7147 63.3716 99.7353 63.4215 99.7533 63.4714L99.8201 63.317C99.8451 63.2606 99.8743 63.2059 99.9076 63.1532L100.785 61.7499C100.803 61.7219 100.826 61.6964 100.852 61.674C100.882 61.6494 100.922 61.6366 100.962 61.6383H101.428L100.003 63.8085Z" fill="#AFB1B8"/>
<path d="M79.0859 55.6274C79.3097 55.6535 79.5361 55.6749 79.765 55.6938C83.2356 54.2607 86.1716 51.9152 88.206 48.9503C90.2404 45.9855 91.283 42.5329 91.2033 39.0242L87.3785 35.4937C88.1562 39.2294 87.7925 43.0911 86.3279 46.6469C84.8634 50.2027 82.3559 53.3121 79.0859 55.6274Z" fill="#AFB1B8"/>
<path d="M77.7202 55.4632L77.8231 55.4822C81.3173 53.1751 83.9814 49.9535 85.4708 46.2339C86.9601 42.5143 87.2063 38.4678 86.1774 34.6177L80.7296 29.5891C82.9331 33.7225 83.82 38.3483 83.2873 42.9287C82.7546 47.5091 80.824 51.8557 77.7202 55.4632Z" fill="#AFB1B8"/>
<path d="M96.1959 43.1697C95.2704 47.025 93.0225 50.502 89.7861 53.0844C88.841 53.8428 87.8214 54.5184 86.7407 55.1025C89.3761 54.3875 91.7983 53.1235 93.8207 51.4077C95.8432 49.692 97.4117 47.5705 98.4054 45.2068L96.1959 43.1697Z" fill="#AFB1B8"/>
<path d="M95.3292 42.6021L92.1835 39.6985C92.1233 43.009 91.1037 46.2442 89.2306 49.0679C87.3575 51.8915 84.6993 54.2006 81.5322 55.7551H81.5477C82.2534 55.7549 82.9586 55.716 83.6594 55.6388C86.6192 54.5237 89.2339 52.7496 91.2702 50.4748C93.3064 48.2001 94.7009 45.4954 95.3292 42.6021Z" fill="#AFB1B8"/>
<path d="M78.1757 27.4688L74.4229 24C71.0681 25.1966 68.1828 27.3003 66.1446 30.0357C64.1065 32.771 63.0105 36.0106 63 39.3304V39.3304C63.0126 42.9988 64.3502 46.5585 66.8012 49.4461C69.2521 52.3337 72.6764 54.3844 76.5321 55.2734C79.974 51.4027 81.9892 46.6197 82.2847 41.6194C82.5803 36.6192 81.1409 31.6622 78.1757 27.4688Z" fill="#AFB1B8"/>
<path d="M104 42.0677C103.987 37.7154 102.108 33.545 98.7735 30.4674C95.4394 27.3899 90.9213 25.6554 86.2062 25.6428C84.0274 25.6407 81.8671 26.0119 79.835 26.7373L102.812 47.9463C103.599 46.0715 104.002 44.0782 104 42.0677Z" fill="#AFB1B8"/>
</svg>
