<svg width="175" height="90" viewBox="0 0 175 90" fill="none" xmlns="http://www.w3.org/2000/svg">
<rect x="0.5" y="0.5" width="174" height="89" rx="3.5" stroke="#AFB1B8"/>
<path d="M59.7669 37.4309H59.7641C57.4353 37.4309 55.5474 39.1624 55.5474 41.2984V41.301C55.5474 43.4369 57.4353 45.1685 59.7641 45.1685H59.7669C62.0957 45.1685 63.9836 43.4369 63.9836 41.301V41.2984C63.9836 39.1624 62.0957 37.4309 59.7669 37.4309Z" fill="#AFB1B8"/>
<path d="M90.8909 36.1946C90.8843 33.2279 89.5967 30.3844 87.3097 28.2864C85.0228 26.1884 81.9228 25.0067 78.6882 25V25C75.4527 25.0054 72.3513 26.1865 70.0632 28.2846C67.775 30.3828 66.4866 33.2271 66.48 36.1946V52.5544C66.48 52.5544 90.8882 50.0611 90.8909 36.1972V36.1946Z" fill="#AFB1B8"/>
<path d="M47 57.924C47.0059 59.9882 47.9023 61.9664 49.4935 63.4263C51.0847 64.8862 53.2412 65.709 55.4919 65.7151C57.742 65.709 59.8981 64.8865 61.4892 63.4272C63.0803 61.9679 63.9771 59.9903 63.9837 57.9265V46.5432C63.9837 46.5432 47 48.2794 47 57.924ZM55.4919 59.9635C55.052 59.9635 54.6221 59.8439 54.2564 59.6198C53.8907 59.3957 53.6057 59.0772 53.4374 58.7045C53.2691 58.3318 53.2251 57.9217 53.3109 57.5261C53.3967 57.1304 53.6084 56.767 53.9194 56.4818C54.2304 56.1965 54.6267 56.0023 55.058 55.9236C55.4894 55.8449 55.9365 55.8853 56.3428 56.0397C56.7492 56.194 57.0965 56.4554 57.3408 56.7908C57.5852 57.1262 57.7156 57.5206 57.7156 57.924C57.7167 58.1924 57.66 58.4585 57.5487 58.7068C57.4374 58.9552 57.2738 59.1809 57.0672 59.3711C56.8606 59.5613 56.6151 59.7122 56.3448 59.8152C56.0744 59.9182 55.7846 59.9712 55.4919 59.9712V59.9635Z" fill="#AFB1B8"/>
<path d="M72.7402 58.8306H71.0527V60.5737H70.1738V56.3081H72.9512V57.02H71.0527V58.1216H72.7402V58.8306ZM76.9648 58.5376C76.9648 58.9575 76.8906 59.3257 76.7422 59.6421C76.5938 59.9585 76.3809 60.2026 76.1035 60.3745C75.8281 60.5464 75.5117 60.6323 75.1543 60.6323C74.8008 60.6323 74.4854 60.5474 74.208 60.3774C73.9307 60.2075 73.7158 59.9653 73.5635 59.6509C73.4111 59.3345 73.334 58.9712 73.332 58.561V58.3501C73.332 57.9302 73.4072 57.561 73.5576 57.2427C73.71 56.9224 73.9238 56.6772 74.1992 56.5073C74.4766 56.3354 74.793 56.2495 75.1484 56.2495C75.5039 56.2495 75.8193 56.3354 76.0947 56.5073C76.3721 56.6772 76.5859 56.9224 76.7363 57.2427C76.8887 57.561 76.9648 57.9292 76.9648 58.3472V58.5376ZM76.0742 58.3442C76.0742 57.897 75.9941 57.5571 75.834 57.3247C75.6738 57.0923 75.4453 56.9761 75.1484 56.9761C74.8535 56.9761 74.626 57.0913 74.4658 57.3218C74.3057 57.5503 74.2246 57.8862 74.2227 58.3296V58.5376C74.2227 58.9731 74.3027 59.311 74.4629 59.5513C74.623 59.7915 74.8535 59.9116 75.1543 59.9116C75.4492 59.9116 75.6758 59.7964 75.834 59.5659C75.9922 59.3335 76.0723 58.9956 76.0742 58.5522V58.3442ZM79.8154 59.4546C79.8154 59.2886 79.7568 59.1616 79.6396 59.0737C79.5225 58.9839 79.3115 58.8901 79.0068 58.7925C78.7021 58.6929 78.4609 58.5952 78.2832 58.4995C77.7988 58.2378 77.5566 57.8853 77.5566 57.4419C77.5566 57.2114 77.6211 57.0063 77.75 56.8267C77.8809 56.645 78.0674 56.5034 78.3096 56.4019C78.5537 56.3003 78.8271 56.2495 79.1299 56.2495C79.4346 56.2495 79.7061 56.3052 79.9443 56.4165C80.1826 56.5259 80.3672 56.6812 80.498 56.8823C80.6309 57.0835 80.6973 57.312 80.6973 57.5679H79.8184C79.8184 57.3726 79.7568 57.2212 79.6338 57.1138C79.5107 57.0044 79.3379 56.9497 79.1152 56.9497C78.9004 56.9497 78.7334 56.9956 78.6143 57.0874C78.4951 57.1772 78.4355 57.2964 78.4355 57.4448C78.4355 57.5835 78.5049 57.6997 78.6436 57.7935C78.7842 57.8872 78.9902 57.9751 79.2617 58.0571C79.7617 58.2075 80.126 58.394 80.3545 58.6167C80.583 58.8394 80.6973 59.1167 80.6973 59.4487C80.6973 59.8179 80.5576 60.1079 80.2783 60.3188C79.999 60.5278 79.623 60.6323 79.1504 60.6323C78.8223 60.6323 78.5234 60.5728 78.2539 60.4536C77.9844 60.3325 77.7783 60.1675 77.6357 59.9585C77.4951 59.7495 77.4248 59.5073 77.4248 59.2319H78.3066C78.3066 59.7026 78.5879 59.938 79.1504 59.938C79.3594 59.938 79.5225 59.896 79.6396 59.812C79.7568 59.7261 79.8154 59.6069 79.8154 59.4546ZM84.5059 57.02H83.1992V60.5737H82.3203V57.02H81.0312V56.3081H84.5059V57.02ZM87.5762 58.7251H85.8887V59.8677H87.8691V60.5737H85.0098V56.3081H87.8633V57.02H85.8887V58.0366H87.5762V58.7251ZM89.9639 59.0122H89.2637V60.5737H88.3848V56.3081H89.9697C90.4736 56.3081 90.8623 56.4204 91.1357 56.645C91.4092 56.8696 91.5459 57.187 91.5459 57.5972C91.5459 57.8882 91.4824 58.1313 91.3555 58.3267C91.2305 58.52 91.04 58.6743 90.7842 58.7896L91.707 60.5327V60.5737H90.7637L89.9639 59.0122ZM89.2637 58.3003H89.9727C90.1934 58.3003 90.3643 58.2446 90.4854 58.1333C90.6064 58.02 90.667 57.8647 90.667 57.6675C90.667 57.4663 90.6094 57.3081 90.4941 57.1929C90.3809 57.0776 90.2061 57.02 89.9697 57.02H89.2637V58.3003ZM94.5898 59.0708V60.5737H93.7109V56.3081H95.375C95.6953 56.3081 95.9766 56.3667 96.2188 56.4839C96.4629 56.6011 96.6504 56.7681 96.7812 56.9849C96.9121 57.1997 96.9775 57.4448 96.9775 57.7202C96.9775 58.1382 96.834 58.4683 96.5469 58.7104C96.2617 58.9507 95.8662 59.0708 95.3604 59.0708H94.5898ZM94.5898 58.3589H95.375C95.6074 58.3589 95.7842 58.3042 95.9053 58.1948C96.0283 58.0854 96.0898 57.9292 96.0898 57.7261C96.0898 57.5171 96.0283 57.3481 95.9053 57.2192C95.7822 57.0903 95.6123 57.0239 95.3955 57.02H94.5898V58.3589ZM100.15 58.7251H98.4629V59.8677H100.443V60.5737H97.584V56.3081H100.438V57.02H98.4629V58.0366H100.15V58.7251ZM104.229 57.02H102.922V60.5737H102.043V57.02H100.754V56.3081H104.229V57.02ZM107.299 58.7251H105.611V59.8677H107.592V60.5737H104.732V56.3081H107.586V57.02H105.611V58.0366H107.299V58.7251ZM109.687 59.0122H108.986V60.5737H108.107V56.3081H109.692C110.196 56.3081 110.585 56.4204 110.858 56.645C111.132 56.8696 111.269 57.187 111.269 57.5972C111.269 57.8882 111.205 58.1313 111.078 58.3267C110.953 58.52 110.763 58.6743 110.507 58.7896L111.43 60.5327V60.5737H110.486L109.687 59.0122ZM108.986 58.3003H109.695C109.916 58.3003 110.087 58.2446 110.208 58.1333C110.329 58.02 110.39 57.8647 110.39 57.6675C110.39 57.4663 110.332 57.3081 110.217 57.1929C110.104 57.0776 109.929 57.02 109.692 57.02H108.986V58.3003ZM114.151 59.4546C114.151 59.2886 114.093 59.1616 113.976 59.0737C113.858 58.9839 113.647 58.8901 113.343 58.7925C113.038 58.6929 112.797 58.5952 112.619 58.4995C112.135 58.2378 111.893 57.8853 111.893 57.4419C111.893 57.2114 111.957 57.0063 112.086 56.8267C112.217 56.645 112.403 56.5034 112.646 56.4019C112.89 56.3003 113.163 56.2495 113.466 56.2495C113.771 56.2495 114.042 56.3052 114.28 56.4165C114.519 56.5259 114.703 56.6812 114.834 56.8823C114.967 57.0835 115.033 57.312 115.033 57.5679H114.154C114.154 57.3726 114.093 57.2212 113.97 57.1138C113.847 57.0044 113.674 56.9497 113.451 56.9497C113.236 56.9497 113.069 56.9956 112.95 57.0874C112.831 57.1772 112.771 57.2964 112.771 57.4448C112.771 57.5835 112.841 57.6997 112.979 57.7935C113.12 57.8872 113.326 57.9751 113.598 58.0571C114.098 58.2075 114.462 58.394 114.69 58.6167C114.919 58.8394 115.033 59.1167 115.033 59.4487C115.033 59.8179 114.894 60.1079 114.614 60.3188C114.335 60.5278 113.959 60.6323 113.486 60.6323C113.158 60.6323 112.859 60.5728 112.59 60.4536C112.32 60.3325 112.114 60.1675 111.972 59.9585C111.831 59.7495 111.761 59.5073 111.761 59.2319H112.643C112.643 59.7026 112.924 59.938 113.486 59.938C113.695 59.938 113.858 59.896 113.976 59.812C114.093 59.7261 114.151 59.6069 114.151 59.4546Z" fill="#AFB1B8"/>
</svg>
